<svg class="icon" viewBox="0 0 1024 1024" xmlns="http://www.w3.org/2000/svg" width="200" height="200"><defs><style/></defs><path d="M215.618 917.834c-55.52 0-93.259-44.608-93.259-110.989V135.403c0-66.381 37.739-110.988 93.286-110.988 21.23 0 43.633 6.59 66.122 19.572l528.531 336.33c39.065 22.53 61.196 55.018 61.196 90.874 0 35.815-22.012 68.263-62.018 91.362L282.722 897.665c-23.498 13.591-45.874 20.169-67.104 20.169zm.027-839.105c-34.795 0-38.972 39.635-38.972 56.674v671.442c0 17.04 4.177 56.675 38.945 56.675 11.404 0 25.028-4.243 38.966-12.293l526.662-335.111c23.165-13.407 35.933-29.556 35.933-44.925 0-15.41-12.729-31.6-34.967-44.435L253.588 90.424c-12.927-7.439-26.526-11.695-37.943-11.695z"/><path d="M485.556 647.034c-4.522 0-8.924-2.24-11.51-6.351-3.99-6.339-2.081-14.72 4.256-18.724l7.333-4.615c6.352-3.978 14.732-2.094 18.723 4.27 4.006 6.338 2.096 14.719-4.255 18.723l-7.333 4.616a13.573 13.573 0 0 1-7.214 2.081zM286.64 772.144c-4.521 0-8.924-2.24-11.51-6.352-3.991-6.337-2.082-14.731 4.269-18.722l152.387-95.86c6.338-3.964 14.719-2.094 18.723 4.27 3.99 6.338 2.082 14.732-4.27 18.724l-152.386 95.858a13.555 13.555 0 0 1-7.213 2.082z"/></svg>