<svg class="icon" width="200" height="200" viewBox="0 0 1024 1024" xmlns="http://www.w3.org/2000/svg"><path d="M888.832 276.48H425.984c-176.128 0-317.44 141.312-317.44 317.44s141.312 317.44 317.44 317.44H634.88c12.288 0 20.48 8.192 20.48 20.48s-8.192 20.48-20.48 20.48H425.984c-198.656 0-358.4-159.744-358.4-358.4s159.744-358.4 358.4-358.4h462.848L749.568 96.256c-8.192-8.192-8.192-20.48 0-28.672s20.48-8.192 28.672 0l174.08 174.08c8.192 8.192 8.192 20.48 0 28.672l-174.08 174.08c-8.192 8.192-20.48 8.192-28.672 0s-8.192-20.48 0-28.672L888.832 276.48z"/></svg>