<svg class="icon" width="200" height="199.22" viewBox="0 0 1028 1024" xmlns="http://www.w3.org/2000/svg"><path d="M726.11 37.236c-83.783 0-158.255 32.582-214.11 93.091-55.855-60.509-130.327-93.09-214.11-93.09C134.983 37.236 0 176.872 0 353.744c0 93.091 37.236 181.528 107.055 246.691L460.8 968.146c13.964 13.963 32.582 23.272 51.2 23.272 18.618 0 37.236-9.309 51.2-23.273l55.855-55.854-55.855-51.2-51.2 51.2-358.4-367.71c-51.2-51.2-83.782-116.363-83.782-190.836 0-134.981 102.4-242.036 228.073-242.036 97.745 0 176.873 65.164 214.109 153.6 32.582-88.436 116.364-153.6 214.11-153.6 125.672 0 228.072 107.055 228.072 242.036 0 69.819-27.927 139.637-74.473 186.182l60.51 41.891c55.854-60.509 88.436-144.29 88.436-232.727C1024 176.873 889.018 37.236 726.109 37.236zM768 539.927h-69.818v153.6H549.236v69.818h148.946v148.946H768V763.345h153.6v-69.818H768z"/></svg>