<svg class="icon" width="200" height="200" viewBox="0 0 1024 1024" xmlns="http://www.w3.org/2000/svg"><path d="M480 192c-17.7 0-32 14.3-32 32v320c0 17.7 14.3 32 32 32h256c17.7 0 32-14.3 32-32s-14.3-32-32-32H512V224c0-17.7-14.3-32-32-32zm503.8 120.7C958 251.7 921.1 197 874.1 150c-47-47-101.8-83.9-162.7-109.7C648.3 13.6 581.2.1 512.1.1 406.8.1 305.6 31.8 219.5 91.9c-41.6 28.8-78.5 63.6-109.8 103.3A512.21 512.21 0 0 0 64 263.9v-104c0-17.7-14.3-32-32-32s-32 14.3-32 32v192c0 17.7 14.3 32 32 32h160c17.7 0 32-14.3 32-32s-14.3-32-32-32h-84.9c73.5-154.4 232.3-256 404.9-256 247 0 448 201 448 448s-201 448-448 448C287.2 959.9 96.2 792 67.7 569.5c-2.2-17.5-18.3-29.9-35.8-27.7C14.4 544 2 560.1 4.2 577.6c15.7 122.5 75.5 235.3 168.3 317.6 93.7 83 214.2 128.7 339.5 128.7 69.1 0 136.2-13.5 199.3-40.2C772.3 957.9 827 921 874 874c47-47 83.9-101.8 109.7-162.7 26.7-63.1 40.2-130.2 40.2-199.3s-13.4-136.2-40.1-199.3z"/></svg>