<svg class="icon" width="200" height="200" viewBox="0 0 1024 1024" xmlns="http://www.w3.org/2000/svg"><path d="M842.138 443.29c-17.204-15.872-39.834-15.872-45.67-15.565H652.594c23.347-98.816 19.661-171.623-10.957-216.679-23.859-35.123-55.193-39.526-58.675-39.936-.717-.102-1.536-.102-2.253-.102-23.347 0-40.448 7.475-50.585 22.22-8.397 12.186-9.319 25.396-9.83 33.383 0 .717-.103 1.536-.103 2.15-.717 2.049-1.024 4.199-1.024 6.35 0 107.52-117.35 195.686-118.58 196.607-5.222 3.892-8.294 9.933-8.294 16.487v338.841c0 22.221 12.8 41.165 35.943 53.35 17.613 9.32 36.864 12.596 48.025 12.596h256.512c18.637 0 34.816-14.029 49.255-42.906 8.601-17.1 13.824-33.996 14.131-34.713 0-.103.102-.205.102-.307 63.59-216.064 64.308-283.034 64.308-285.696-.205-24.27-10.138-38.4-18.432-46.08zm-85.3 320c-.41 1.33-4.096 12.595-9.728 24.678-8.294 17.613-14.13 22.835-15.872 24.064H476.16c-11.06 0-43.008-8.602-43.008-24.986V458.138c11.98-9.83 35.328-30.31 58.778-58.573 19.558-23.655 35.123-47.821 46.387-72.09 13.926-29.9 21.197-59.904 21.709-89.088.716-3.072.921-6.144 1.126-9.113.307-4.404.614-9.933 2.662-12.698 1.844-2.765 7.476-4.403 15.36-4.608 3.175.82 17.101 5.018 28.672 22.118 10.752 15.77 16.999 37.888 18.535 65.946 2.15 38.195-4.506 86.323-19.866 142.848-1.638 6.144-.41 12.698 3.482 17.818s9.933 7.987 16.281 7.987H796.57c.716 0 1.433 0 2.15-.103.102 0 10.24-.307 15.77 4.813 3.276 2.97 4.915 8.295 4.915 15.667-.103 1.946-2.048 68.301-62.567 274.228zM307.917 427.827H205.619c-26.829 0-41.574 21.095-41.881 40.858v1.536l21.094 341.094c.41 26.931 21.914 41.472 42.291 41.472h88.474c14.848 0 23.859-5.939 28.774-10.957 7.373-7.475 10.035-17.305 9.933-23.961V474.214c0-16.793-7.066-27.238-12.902-33.075-12.8-12.493-29.39-13.312-33.485-13.312zm-.103 40.96zm-80.793 343.245h.307-.307zm86.323 0h-85.811c-.512 0-1.127-.205-1.639-.41v-2.15l-20.992-340.07c0-.205.103-.41.103-.615h103.014c5.427.307 5.427 2.56 5.427 5.427v337.818z"/></svg>