<svg class="icon" viewBox="0 0 1024 1024" xmlns="http://www.w3.org/2000/svg" width="200" height="200"><defs><style/></defs><path d="M936.026 65.52c-6.113-18.723-15.5-46.957-56.131-46.957h-730.67c-41.193 0-50.393 28.908-55.332 44.438L20.777 401.068c-2.966 22.092 4.446 35.844 11.174 43.454 10.375 11.785 26.063 17.617 46.377 17.617a123.839 123.839 0 0 0 6.98 5.94v480.596c0 31.363 25.628 56.895 57.184 56.895H885.76c31.556 0 57.244-25.532 57.244-56.895V466.239a128.092 128.092 0 0 0 4.878-4.163h1.112c13.953 0 26.427-3.44 36.186-10.005 10.621-7.059 23.278-21.174 22.786-52.787L936.026 65.52zM896.69 948.673c0 5.953-4.876 10.862-10.928 10.862h-743.27a10.863 10.863 0 0 1-10.867-10.862V492.73c16.98 5.714 35.205 8.872 53.291 8.872 35.633 0 77.871-13.87 105.908-33.448 28.408 19.764 74.724 36.7 120.111 36.7 41.931 0 91.274-24.487 115.665-38.295 25.629 18.901 67.744 34.982 117.95 34.982 47.983-.121 84.046-19.395 103.808-33.264 26.058 18.655 63.172 30.442 98.867 30.442 17.224 0 33.927-2.646 49.465-7.65v457.604zm62.618-534.596c-1.979 1.35-5.927 2.089-15.565 1.784l-12.72-2.58-8.893 9.512c-17.354 18.784-45.326 30.014-74.907 30.014-35.136 0-67.435-15.098-81.267-30.014L749.591 405.3l-17.11 16.761c-.307.305-34.46 33.325-88.8 33.51-43.967 0-82.318-16.51-97.447-32.9l-13.217-14.297-16.427 10.558c-17.228 11.047-69.78 39.83-105.659 39.83-44.771 0-89.42-21.419-103.129-36.273l-16.98-18.35-17.103 18.35c-14.514 15.653-54.593 33.081-88.805 33.081-35.818 0-66.077-16.265-80.091-32.407l-8.77-9.757-12.845 2.208c-.555.123-3.025.493-6.236.493-6.73 0-9.755-1.533-10.123-1.845 0 0-.928-1.78-.498-5.337l69.536-325.61 2.097-6.442c1.237-3.803 3.211-10.13 4.571-11.17.307-.25 2.347-.924 6.605-.924h730.673c4.57 0 6.175.674 6.236.674 1.667 1.6 4.262 9.456 6.3 15.286l69.781 323.52c0 3.62-.497 8.285-2.842 9.819z"/><path d="M228.352 857.088h126.976v40.96H228.352zm210.944 0H834.56v40.96H439.296z"/></svg>