<svg class="icon" viewBox="0 0 1024 1024" xmlns="http://www.w3.org/2000/svg" width="200" height="200"><defs><style/></defs><path d="M958.141 427.02L633.095 110.474C601.228 80.73 558.74 61.61 512 61.61c-44.614 0-87.104 16.996-118.971 46.739L67.983 424.896c-12.746 10.623-19.12 25.494-19.12 42.49 0 31.867 25.494 57.36 57.361 57.36v348.416c0 48.863 38.24 87.104 87.104 87.104h180.58c31.868 0 57.362-25.494 57.362-57.361V743.568c0-44.614 36.116-80.73 80.73-80.73 44.614 0 80.73 36.116 80.73 80.73v159.337c0 31.867 25.494 57.36 57.361 57.36h180.581c48.863 0 87.104-38.24 87.104-87.103v-346.29c31.867 0 57.36-25.494 57.36-57.362 0-16.995-6.373-31.867-16.995-42.49zm-70.108 40.366c-16.996 0-29.743 12.747-29.743 29.743V858.29c0 25.494-21.244 46.739-46.738 46.739H667.087c-10.622 0-16.996-8.498-16.996-16.996v-142.34c0-76.481-61.61-138.091-138.091-138.091-76.481 0-138.091 61.61-138.091 138.09v142.341c0 10.623-8.498 16.996-16.996 16.996h-146.59c-25.493 0-46.738-21.245-46.738-46.739V497.13c0-16.996-12.747-29.743-29.743-29.743-6.373 0-10.622-4.25-10.622-10.623 0-4.248 2.124-6.373 4.249-8.497 0 0 212.448-208.2 303.8-295.303 21.246-21.245 48.864-33.992 80.731-33.992 31.867 0 59.485 12.747 80.73 33.992l301.677 295.303c2.124 2.124 4.249 4.249 4.249 8.497 0 6.374-4.25 10.623-10.623 10.623z"/></svg>