<svg class="icon" width="200" height="200" viewBox="0 0 1024 1024" xmlns="http://www.w3.org/2000/svg"><path d="M604.43 631.091c-125.421 106.343-294.027 76.145-381.819-32.227-86.994-107.387-77.164-264.678 23.28-359.938 101.296-96.07 258.277-97.671 362.04-3.193 102.428 93.27 119.977 253.989 20.498 370.792 2.773 2.601 5.857 5.403 8.73 8.242 64.088 63.305 128.13 126.662 191.888 190.296 3.555 3.549 6.594 7.555 8.671 12.095 1.245 2.726 1.806 6.12 1.817 9.153a10.568 10.568 0 0 1-.369 2.85c-.614 2.233-1.53 4.314-3.07 6.081-1.323 1.518-3.195 2.556-4.95 3.158-3.199 1.096-7.14 1.493-10.496 1.288-3.576-.219-6.408-1.878-9.482-3.789-.801-.495-1.993-1.153-2.763-1.929-.811-.817-1.632-1.554-2.447-2.361-64.476-63.883-128.96-127.759-193.327-191.752-2.862-2.847-5.72-5.643-8.2-8.766zM428.835 670.43c132.54-.09 238.977-106.678 238.88-239.219-.096-132.544-106.672-238.966-239.222-238.88-132.534.086-238.965 106.668-238.879 239.225.084 132.54 106.664 238.962 239.22 238.874z"/></svg>