<svg class="icon" viewBox="0 0 1024 1024" xmlns="http://www.w3.org/2000/svg" width="200" height="200"><defs><style/></defs><path d="M248.848 488.434c-2.442 0-4.368.358-5.881.961a22.424 22.424 0 0 1 6.503-.961h-.622zm674.933 268.915c.068-1.249.228-2.474.492-3.654-.29.54-.443 1.698-.492 3.654zm45.027-496.783a.687.687 0 0 0 .013-.159v-.586c-.001.253-.001.506-.013.745zm-45.052-.074c0 .05 0 .1.013.155-.013-.272-.013-.549-.013-.826v.671zm27.172 675.678c-6.337-47.193-20.2-92.76-41.194-135.438a440.612 440.612 0 0 0-13.063-24.587c-.013-.025-.024-.05-.056-.074-19.985-33.847-44.504-65.276-73.085-93.328l-.012-.013a462.204 462.204 0 0 0-19.203-17.818c-46.99-41.175-101.24-71.712-159.09-90.282a274.876 274.876 0 0 0 30.327-19.498 277.12 277.12 0 0 0 31.548-27.154c52.152-52.16 80.885-121.516 80.885-195.283s-28.734-143.123-80.885-195.28c-51.218-51.21-119.01-79.827-191.264-80.86a320.771 320.771 0 0 0-3.44-.025c-1.15 0-2.294.012-3.437.024-72.255 1.034-140.054 29.651-191.265 80.863-52.151 52.157-80.887 121.513-80.887 195.28s28.736 143.123 80.887 195.284a277.574 277.574 0 0 0 31.54 27.153 275.062 275.062 0 0 0 30.333 19.498c-57.85 18.57-112.1 49.107-159.09 90.282a460.285 460.285 0 0 0-19.203 17.819c-28.604 28.076-53.154 59.53-73.152 93.414a445.106 445.106 0 0 0-13.067 24.587C94.06 843.411 80.204 888.98 73.86 936.173c-2.024 15.118 8.582 29.018 23.695 31.047 1.243.166 2.492.252 3.718.252 1.12 0 2.214-.061 3.31-.203 10.927-2.38 19.75-11.29 21.46-22.993 12.73-87.353 54.361-166.731 114.205-227.178 71.023-71.76 167.685-116.862 272.15-117.041h.59c104.237.357 200.679 45.415 271.559 117.041 59.838 60.447 101.475 139.826 114.204 227.178 1.712 11.678 10.498 20.576 21.395 22.981.023 0 .037.012.061.012 1.096.143 2.198.203 3.317.203 1.224 0 2.467-.086 3.716-.252 15.111-2.031 25.718-15.931 23.688-31.05zM511.806 553.637c-.56 0-1.114 0-1.667-.012-103.074-.757-194.973-72.37-220.09-168.432a132.204 132.204 0 0 1-.806-3.162 204.852 204.852 0 0 1-6.025-49.334c0-16.952 2.092-33.643 6.025-49.8.253-1.085.529-2.154.806-3.226 25.253-98.466 118.008-176.73 221.757-176.73h1.181c103.745 0 196.506 78.265 221.759 176.73.277 1.072.553 2.141.805 3.225 3.932 16.158 6.024 32.85 6.024 49.8 0 16.954-2.092 33.454-6.024 49.335a135.357 135.357 0 0 1-.805 3.162c-25.117 96.061-117.017 167.675-220.097 168.432-.941.012-1.89.012-2.843.012zm0 0"/></svg>