<svg class="icon" width="200" height="199.8" viewBox="0 0 1025 1024" xmlns="http://www.w3.org/2000/svg"><path d="M512.016 1024c-282.784 0-512-229.216-512-512s229.216-512 512-512C794.784 0 1024 229.216 1024 512s-229.216 512-511.984 512zm0-960c-247.04 0-448 200.96-448 448 0 247.024 200.96 448 448 448C759.04 960 960 759.024 960 512c0-247.04-200.96-448-447.984-448zm-1.68 769.456c-1.28 0-2.592.032-3.888.032-195.456 0-277.424-176.368-280.832-183.936-7.28-16.128-.128-35.056 15.968-42.336 16.128-7.248 34.992-.128 42.304 15.872 2.752 6.032 69.04 146.4 222.688 146.4 1.008 0 2-.032 3.008-.032 163.312-1.904 228.784-144.688 229.44-146.112 7.152-16.128 26-23.472 42.24-16.192 16.128 7.184 23.408 26.096 16.192 42.256-3.28 7.392-83.248 181.648-287.12 184.048zM671.504 479.84c-35.28 0-63.84-28.608-63.84-63.856 0-35.216 28.56-63.808 63.84-63.808 35.264 0 63.84 28.592 63.84 63.808 0 35.248-28.576 63.856-63.84 63.856zm-320 0c-35.28 0-63.84-28.608-63.84-63.856 0-35.216 28.56-63.808 63.84-63.808 35.264 0 63.84 28.592 63.84 63.808 0 35.248-28.576 63.856-63.84 63.856z"/></svg>